<svg viewBox="0 0 300 300" xmlns="http://www.w3.org/2000/svg">
          <path
            fill="#0F62FE"
            d="M42.7,-59.3C53.2,-51.1,58.1,-35.8,65.8,-19.6C73.5,-3.4,84,13.6,83.1,30.3C82.3,47,70.1,63.3,54.3,69.8C38.6,76.3,19.3,72.9,2.3,69.7C-14.6,66.5,-29.2,63.4,-39.2,55.1C-49.1,46.7,-54.3,33,-57.2,19.7C-60.1,6.3,-60.7,-6.8,-57.5,-19.3C-54.3,-31.8,-47.3,-43.7,-37.1,-51.9C-26.9,-60.2,-13.5,-64.8,1.3,-66.6C16.1,-68.4,32.2,-67.4,42.7,-59.3Z"
            transform="translate(100 100)"
          />
        </svg>